<svg 
 xmlns="http://www.w3.org/2000/svg"
 xmlns:xlink="http://www.w3.org/1999/xlink"
 width="2952px" height="1711px">
<path fill-rule="evenodd"  fill="rgb(29, 29, 29)"
 d="M697.000,0.000 C698.667,0.000 700.334,0.000 702.000,0.000 C701.667,0.667 701.333,1.333 701.000,2.000 C629.704,30.629 571.025,150.187 597.000,260.000 C622.290,366.914 672.282,446.942 729.000,522.000 C742.519,539.890 756.125,561.583 774.000,575.000 C777.233,532.777 798.813,451.138 824.000,432.000 C815.356,473.213 816.743,529.786 826.000,569.000 C863.964,729.826 985.802,799.875 1142.000,842.000 C1185.669,853.777 1234.561,854.214 1283.000,862.000 C1305.009,865.538 1335.071,861.614 1346.000,876.000 C1366.655,903.190 1318.318,945.063 1302.000,952.000 C1190.621,999.353 1087.440,1048.544 1050.000,1169.000 C1027.188,1242.394 1041.630,1344.340 1055.000,1418.000 C1057.333,1444.331 1059.667,1470.669 1062.000,1497.000 C1071.019,1556.317 1042.560,1617.727 1022.000,1650.000 C1017.334,1645.334 1012.666,1640.666 1008.000,1636.000 C980.336,1613.336 952.664,1590.664 925.000,1568.000 C860.627,1517.851 796.030,1457.862 769.000,1371.000 C754.552,1324.572 752.105,1272.304 745.000,1218.000 C757.999,1202.002 771.001,1185.998 784.000,1170.000 C822.855,1119.260 864.099,1067.375 890.000,1004.000 C901.788,975.157 910.945,934.054 896.000,903.000 C957.174,911.477 1010.153,941.889 1051.000,972.000 C1031.332,916.075 933.600,884.532 870.000,869.000 C844.003,864.334 817.997,859.666 792.000,855.000 C747.893,838.450 718.050,809.819 701.000,766.000 C749.221,747.450 819.499,781.558 850.000,797.000 C837.001,785.001 823.999,772.999 811.000,761.000 C787.669,737.002 764.331,712.998 741.000,689.000 C657.491,585.337 582.136,497.887 529.000,361.000 C495.425,274.505 487.343,154.247 541.000,83.000 C565.474,50.502 604.074,24.648 647.000,11.000 C663.665,7.334 680.335,3.666 697.000,0.000 ZM0.000,481.000 C12.332,493.332 24.668,505.668 37.000,518.000 C68.330,546.331 99.670,574.670 131.000,603.000 C223.422,676.250 318.887,744.710 423.000,807.000 C481.806,842.183 545.347,876.882 609.000,905.000 C633.508,915.826 672.870,926.450 688.000,947.000 C704.216,969.025 693.006,1056.107 693.000,1095.000 C692.985,1198.760 696.821,1300.875 722.000,1382.000 C752.353,1479.796 820.756,1549.703 893.000,1606.000 C926.896,1632.414 970.139,1658.728 996.000,1693.000 C956.671,1670.002 917.329,1646.998 878.000,1624.000 C777.102,1563.497 648.476,1514.591 610.000,1392.000 C594.689,1343.217 591.321,1287.689 582.000,1233.000 C567.253,1146.470 587.813,1082.015 542.000,1024.000 C500.400,971.319 412.774,950.125 354.000,915.000 C231.238,841.634 131.952,751.391 59.000,628.000 C37.517,591.664 3.734,531.138 0.000,481.000 ZM93.000,758.000 C109.082,778.712 120.112,802.728 136.000,823.000 C184.173,884.464 253.770,929.628 323.000,970.000 C362.025,992.757 406.108,1011.375 449.000,1029.000 C471.597,1038.285 500.913,1044.313 513.000,1064.000 C528.962,1089.999 519.517,1136.716 525.000,1173.000 C527.333,1199.664 529.667,1226.336 532.000,1253.000 C436.487,1217.828 344.580,1181.915 272.000,1124.000 C193.145,1061.078 113.234,880.853 93.000,758.000 ZM226.000,1136.000 C251.236,1154.759 271.243,1179.498 299.000,1197.000 C371.402,1242.653 452.313,1271.101 539.000,1304.000 C541.843,1359.262 563.447,1407.952 578.000,1452.000 C577.667,1452.000 577.333,1452.000 577.000,1452.000 C510.834,1431.124 443.828,1416.958 393.000,1381.000 C340.723,1344.017 305.297,1287.134 272.000,1231.000 C255.788,1203.669 232.949,1170.085 226.000,1136.000 ZM1254.000,1166.000 C1317.003,1165.053 1376.062,1162.129 1403.000,1197.000 C1437.099,1241.142 1417.026,1305.413 1374.000,1324.000 C1355.579,1331.958 1333.194,1333.381 1306.000,1333.000 C1306.000,1347.998 1306.000,1363.001 1306.000,1378.000 C1288.668,1378.000 1271.332,1378.000 1254.000,1378.000 C1254.000,1307.340 1254.000,1236.660 1254.000,1166.000 ZM1508.000,1166.000 C1556.328,1166.000 1604.672,1166.000 1653.000,1166.000 C1653.000,1181.998 1653.000,1198.002 1653.000,1214.000 C1621.670,1214.000 1590.330,1214.000 1559.000,1214.000 C1559.000,1224.999 1559.000,1236.001 1559.000,1247.000 C1587.664,1247.333 1616.336,1247.667 1645.000,1248.000 C1645.000,1263.998 1645.000,1280.002 1645.000,1296.000 C1616.336,1296.000 1587.664,1296.000 1559.000,1296.000 C1559.000,1306.999 1559.000,1318.001 1559.000,1329.000 C1590.330,1329.000 1621.670,1329.000 1653.000,1329.000 C1653.000,1345.332 1653.000,1361.668 1653.000,1378.000 C1604.672,1378.000 1556.328,1378.000 1508.000,1378.000 C1508.000,1307.340 1508.000,1236.660 1508.000,1166.000 ZM1818.000,1166.000 C1828.666,1166.000 1839.334,1166.000 1850.000,1166.000 C1877.997,1236.660 1906.003,1307.340 1934.000,1378.000 C1915.002,1378.000 1895.998,1378.000 1877.000,1378.000 C1862.668,1339.004 1848.332,1299.996 1834.000,1261.000 C1833.333,1261.333 1832.667,1261.667 1832.000,1262.000 C1817.668,1300.663 1803.332,1339.337 1789.000,1378.000 C1770.002,1378.000 1750.998,1378.000 1732.000,1378.000 C1732.000,1377.667 1732.000,1377.333 1732.000,1377.000 C1760.664,1306.674 1789.336,1236.326 1818.000,1166.000 ZM2021.000,1166.000 C2038.332,1166.000 2055.668,1166.000 2073.000,1166.000 C2073.000,1204.329 2073.000,1242.670 2073.000,1281.000 C2101.997,1242.670 2131.003,1204.329 2160.000,1166.000 C2170.332,1166.000 2180.668,1166.000 2191.000,1166.000 C2191.000,1236.660 2191.000,1307.340 2191.000,1378.000 C2174.002,1378.000 2156.998,1378.000 2140.000,1378.000 C2140.000,1339.337 2140.000,1300.663 2140.000,1262.000 C2111.003,1300.663 2081.997,1339.337 2053.000,1378.000 C2042.334,1378.000 2031.666,1378.000 2021.000,1378.000 C2021.000,1307.340 2021.000,1236.660 2021.000,1166.000 ZM2296.000,1166.000 C2342.662,1166.000 2389.338,1166.000 2436.000,1166.000 C2436.000,1181.998 2436.000,1198.002 2436.000,1214.000 C2406.670,1214.000 2377.330,1214.000 2348.000,1214.000 C2348.000,1268.661 2348.000,1323.339 2348.000,1378.000 C2330.668,1378.000 2313.332,1378.000 2296.000,1378.000 C2296.000,1307.340 2296.000,1236.660 2296.000,1166.000 ZM2523.000,1166.000 C2540.332,1166.000 2557.668,1166.000 2575.000,1166.000 C2575.000,1204.329 2575.000,1242.670 2575.000,1281.000 C2603.997,1242.670 2633.003,1204.329 2662.000,1166.000 C2672.332,1166.000 2682.668,1166.000 2693.000,1166.000 C2693.000,1236.660 2693.000,1307.340 2693.000,1378.000 C2676.002,1378.000 2658.998,1378.000 2642.000,1378.000 C2642.000,1339.337 2642.000,1300.663 2642.000,1262.000 C2613.003,1300.663 2583.997,1339.337 2555.000,1378.000 C2544.334,1378.000 2533.666,1378.000 2523.000,1378.000 C2523.000,1307.340 2523.000,1236.660 2523.000,1166.000 ZM2952.000,1166.000 C2952.000,1236.660 2952.000,1307.340 2952.000,1378.000 C2934.668,1378.000 2917.332,1378.000 2900.000,1378.000 C2900.000,1362.002 2900.000,1345.998 2900.000,1330.000 C2859.222,1329.348 2852.799,1353.861 2838.000,1378.000 C2819.002,1378.000 2799.998,1378.000 2781.000,1378.000 C2781.000,1377.667 2781.000,1377.333 2781.000,1377.000 C2792.893,1354.710 2816.251,1332.679 2826.000,1313.000 C2782.893,1298.471 2774.849,1231.203 2803.000,1195.000 C2829.392,1161.060 2890.853,1165.266 2952.000,1166.000 ZM1306.000,1214.000 C1306.000,1237.331 1306.000,1260.669 1306.000,1284.000 C1338.060,1285.033 1364.394,1283.148 1371.000,1259.000 C1381.738,1219.745 1341.322,1212.892 1306.000,1214.000 ZM2900.000,1281.000 C2900.000,1258.669 2900.000,1236.331 2900.000,1214.000 C2866.506,1212.895 2826.813,1215.361 2834.000,1253.000 C2839.483,1281.714 2864.937,1282.129 2900.000,1281.000 ZM1318.000,1458.000 C1360.355,1456.971 1392.520,1469.265 1410.000,1493.000 C1410.000,1493.333 1410.000,1493.667 1410.000,1494.000 C1399.001,1503.999 1387.999,1514.001 1377.000,1524.000 C1375.667,1522.667 1374.333,1521.333 1373.000,1520.000 C1360.872,1514.607 1346.290,1502.445 1326.000,1506.000 C1290.397,1512.238 1259.817,1546.409 1278.000,1591.000 C1285.041,1608.265 1299.992,1620.597 1320.000,1625.000 C1345.340,1630.577 1375.372,1607.497 1380.000,1612.000 C1389.999,1620.999 1400.001,1630.001 1410.000,1639.000 C1351.842,1717.017 1199.159,1657.427 1224.000,1545.000 C1232.349,1507.213 1257.068,1478.228 1290.000,1465.000 C1299.332,1462.667 1308.668,1460.333 1318.000,1458.000 ZM2040.000,1458.000 C2191.975,1455.336 2198.341,1651.788 2066.000,1674.000 C1990.945,1686.597 1927.068,1608.023 1949.000,1536.000 C1958.610,1504.442 1981.186,1478.330 2010.000,1466.000 C2019.999,1463.334 2030.001,1460.666 2040.000,1458.000 ZM1498.000,1460.000 C1546.328,1460.000 1594.672,1460.000 1643.000,1460.000 C1643.000,1475.998 1643.000,1492.002 1643.000,1508.000 C1612.003,1508.000 1580.997,1508.000 1550.000,1508.000 C1550.000,1518.999 1550.000,1530.001 1550.000,1541.000 C1578.330,1541.000 1606.669,1541.000 1635.000,1541.000 C1635.000,1557.332 1635.000,1573.668 1635.000,1590.000 C1606.669,1590.000 1578.330,1590.000 1550.000,1590.000 C1550.000,1600.999 1550.000,1612.001 1550.000,1623.000 C1580.997,1623.000 1612.003,1623.000 1643.000,1623.000 C1643.000,1639.332 1643.000,1655.668 1643.000,1672.000 C1594.672,1672.000 1546.328,1672.000 1498.000,1672.000 C1498.000,1601.340 1498.000,1530.660 1498.000,1460.000 ZM1736.000,1460.000 C1782.662,1460.000 1829.338,1460.000 1876.000,1460.000 C1876.000,1475.998 1876.000,1492.002 1876.000,1508.000 C1846.336,1508.333 1816.664,1508.667 1787.000,1509.000 C1787.000,1563.328 1787.000,1617.672 1787.000,1672.000 C1770.002,1672.000 1752.998,1672.000 1736.000,1672.000 C1736.000,1601.340 1736.000,1530.660 1736.000,1460.000 ZM2444.000,1623.000 C2444.000,1652.330 2444.000,1681.670 2444.000,1711.000 C2426.668,1711.000 2409.332,1711.000 2392.000,1711.000 C2392.000,1698.001 2392.000,1684.999 2392.000,1672.000 C2353.337,1672.000 2314.663,1672.000 2276.000,1672.000 C2276.000,1684.999 2276.000,1698.001 2276.000,1711.000 C2258.668,1711.000 2241.332,1711.000 2224.000,1711.000 C2224.000,1681.670 2224.000,1652.330 2224.000,1623.000 C2233.666,1623.000 2243.334,1623.000 2253.000,1623.000 C2274.998,1568.672 2297.002,1514.328 2319.000,1460.000 C2329.666,1460.333 2340.334,1460.667 2351.000,1461.000 C2372.331,1514.995 2393.669,1569.005 2415.000,1623.000 C2424.666,1623.000 2434.334,1623.000 2444.000,1623.000 ZM2525.000,1460.000 C2542.332,1460.000 2559.668,1460.000 2577.000,1460.000 C2577.000,1486.997 2577.000,1514.003 2577.000,1541.000 C2598.665,1541.000 2620.335,1541.000 2642.000,1541.000 C2642.000,1514.003 2642.000,1486.997 2642.000,1460.000 C2659.332,1460.000 2676.668,1460.000 2694.000,1460.000 C2694.000,1530.660 2694.000,1601.340 2694.000,1672.000 C2676.668,1672.000 2659.332,1672.000 2642.000,1672.000 C2642.000,1644.669 2642.000,1617.331 2642.000,1590.000 C2620.335,1590.000 2598.665,1590.000 2577.000,1590.000 C2577.000,1617.331 2577.000,1644.669 2577.000,1672.000 C2559.668,1672.000 2542.332,1672.000 2525.000,1672.000 C2525.000,1601.340 2525.000,1530.660 2525.000,1460.000 ZM2948.000,1460.000 C2948.000,1530.660 2948.000,1601.340 2948.000,1672.000 C2931.002,1672.000 2913.998,1672.000 2897.000,1672.000 C2896.667,1656.002 2896.333,1639.998 2896.000,1624.000 C2851.367,1623.461 2854.953,1650.689 2834.000,1672.000 C2815.002,1672.000 2795.998,1672.000 2777.000,1672.000 C2777.333,1671.000 2777.667,1670.000 2778.000,1669.000 C2787.332,1654.668 2796.668,1640.332 2806.000,1626.000 C2811.333,1619.667 2816.667,1613.333 2822.000,1607.000 C2781.453,1593.393 2770.118,1527.147 2798.000,1491.000 C2825.248,1455.674 2884.402,1459.249 2948.000,1460.000 ZM2048.000,1506.000 C2023.176,1515.857 2006.935,1519.868 1999.000,1546.000 C1985.580,1590.191 2016.877,1634.783 2064.000,1625.000 C2128.922,1611.521 2124.765,1504.982 2048.000,1506.000 ZM2897.000,1575.000 C2896.667,1552.669 2896.333,1530.331 2896.000,1508.000 C2861.212,1506.842 2816.578,1512.561 2832.000,1555.000 C2839.789,1576.433 2866.818,1575.978 2897.000,1575.000 ZM2334.000,1555.000 C2325.334,1577.664 2316.666,1600.336 2308.000,1623.000 C2325.332,1623.000 2342.668,1623.000 2360.000,1623.000 C2360.000,1622.667 2360.000,1622.333 2360.000,1622.000 C2351.334,1599.669 2342.666,1577.331 2334.000,1555.000 Z"/>
</svg>