<svg 
 xmlns="http://www.w3.org/2000/svg"
 xmlns:xlink="http://www.w3.org/1999/xlink"
 width="17903px" height="4363px">
<path fill-rule="evenodd"  fill="rgb(111, 61, 28)"
 d="M1804.000,0.000 C1807.000,0.333 1810.000,0.667 1813.000,1.000 C1813.333,1.667 1813.667,2.333 1814.000,3.000 C1813.333,4.333 1812.667,5.667 1812.000,7.000 C1778.824,17.826 1724.330,72.664 1700.000,97.000 C1603.529,193.492 1533.028,318.301 1533.000,511.000 C1532.994,553.425 1532.380,592.185 1541.000,629.000 C1554.149,685.160 1564.287,738.984 1580.000,791.000 C1638.379,984.252 1744.670,1148.368 1851.000,1296.000 C1885.375,1343.727 1923.031,1386.775 1959.000,1432.000 C1971.443,1447.645 1986.056,1469.248 2003.000,1480.000 C2004.000,1479.333 2005.000,1478.667 2006.000,1478.000 C2020.977,1339.076 2065.610,1208.579 2129.000,1116.000 C2130.000,1116.333 2131.000,1116.667 2132.000,1117.000 C2134.835,1128.308 2128.991,1141.000 2127.000,1151.000 C2124.667,1175.331 2122.333,1199.669 2120.000,1224.000 C2120.000,1247.331 2120.000,1270.669 2120.000,1294.000 C2120.000,1306.999 2120.000,1320.001 2120.000,1333.000 C2124.333,1369.663 2128.667,1406.337 2133.000,1443.000 C2199.667,1774.760 2392.768,1926.663 2652.000,2065.000 C2782.819,2134.810 2944.020,2166.575 3112.000,2199.000 C3171.994,2205.666 3232.006,2212.334 3292.000,2219.000 C3359.794,2230.017 3509.313,2215.631 3496.000,2300.000 C3484.594,2372.282 3430.525,2424.621 3374.000,2452.000 C3348.340,2464.429 3319.604,2470.015 3294.000,2480.000 C3242.010,2500.275 3187.801,2526.643 3140.000,2554.000 C2936.463,2670.486 2773.535,2807.533 2707.000,3062.000 C2666.610,3216.472 2696.783,3460.113 2725.000,3607.000 C2731.999,3667.661 2739.001,3728.339 2746.000,3789.000 C2746.667,3811.664 2747.333,3834.336 2748.000,3857.000 C2751.525,3879.971 2750.467,3913.113 2747.000,3935.000 C2741.734,3968.242 2744.996,3995.812 2739.000,4026.000 C2729.566,4073.501 2714.695,4117.330 2699.000,4157.000 C2686.287,4189.134 2670.551,4228.952 2647.000,4251.000 C2629.038,4246.458 2597.381,4205.412 2581.000,4193.000 C2528.672,4150.671 2476.328,4108.329 2424.000,4066.000 C2260.173,3939.166 2101.085,3796.049 2014.000,3593.000 C1990.348,3537.852 1979.065,3476.413 1966.000,3411.000 C1958.851,3375.207 1952.477,3333.788 1946.000,3296.000 C1943.667,3270.336 1941.333,3244.664 1939.000,3219.000 C1936.441,3203.404 1926.647,3157.031 1932.000,3140.000 C1976.329,3085.672 2020.671,3031.328 2065.000,2977.000 C2152.912,2859.636 2239.872,2739.443 2300.000,2595.000 C2317.249,2553.563 2330.228,2513.940 2340.000,2462.000 C2342.749,2447.386 2347.991,2427.411 2345.000,2409.000 C2342.667,2394.001 2340.333,2378.999 2338.000,2364.000 C2334.214,2352.765 2326.599,2342.909 2325.000,2330.000 C2325.333,2329.667 2325.667,2329.333 2326.000,2329.000 C2354.803,2330.081 2386.522,2343.789 2411.000,2352.000 C2490.017,2378.505 2566.122,2400.350 2631.000,2441.000 C2648.332,2451.999 2665.668,2463.001 2683.000,2474.000 C2694.332,2482.999 2705.668,2492.001 2717.000,2501.000 C2717.667,2500.667 2718.333,2500.333 2719.000,2500.000 C2719.000,2498.667 2719.000,2497.333 2719.000,2496.000 C2637.472,2355.514 2436.406,2280.067 2253.000,2240.000 C2205.587,2229.642 2158.231,2229.623 2109.000,2218.000 C2010.471,2194.738 1932.116,2151.591 1879.000,2083.000 C1858.731,2056.825 1822.989,2013.720 1818.000,1975.000 C1818.667,1974.333 1819.333,1973.667 1820.000,1973.000 C1932.021,1943.018 2052.023,1987.494 2133.000,2020.000 C2154.664,2030.332 2176.336,2040.668 2198.000,2051.000 C2197.333,2049.667 2196.667,2048.333 2196.000,2047.000 C2167.669,2020.336 2139.330,1993.664 2111.000,1967.000 C2077.138,1939.678 2048.302,1905.998 2018.000,1875.000 C1986.562,1842.840 1953.354,1812.228 1925.000,1777.000 C1886.054,1728.612 1838.323,1686.280 1800.000,1637.000 C1705.474,1515.448 1605.185,1394.215 1527.000,1257.000 C1495.760,1202.174 1468.167,1147.902 1439.000,1090.000 C1410.006,1032.441 1379.714,968.282 1360.000,903.000 C1298.703,700.017 1260.895,436.397 1375.000,256.000 C1440.967,151.708 1534.446,82.929 1657.000,35.000 C1689.330,26.001 1721.670,16.999 1754.000,8.000 C1770.665,5.334 1787.335,2.666 1804.000,0.000 ZM11706.000,706.000 C11857.542,703.219 11954.225,751.620 12038.000,816.000 C12056.774,830.428 12076.914,845.964 12091.000,865.000 C12050.004,902.996 12008.996,941.004 11968.000,979.000 C11964.000,975.000 11960.000,971.000 11956.000,967.000 C11941.668,956.334 11927.332,945.666 11913.000,935.000 C11884.619,917.280 11850.886,903.673 11815.000,894.000 C11645.456,848.298 11505.884,946.914 11458.000,1057.000 C11442.422,1092.815 11436.941,1130.714 11430.000,1177.000 C11425.485,1207.109 11431.655,1241.633 11437.000,1265.000 C11464.388,1384.724 11531.339,1463.309 11644.000,1497.000 C11763.083,1532.612 11917.438,1480.453 11968.000,1413.000 C11972.000,1417.000 11976.000,1421.000 11980.000,1425.000 C12017.330,1458.997 12054.670,1493.003 12092.000,1527.000 C12083.334,1535.999 12074.666,1545.001 12066.000,1554.000 C12056.334,1562.332 12046.666,1570.667 12037.000,1579.000 C12017.002,1592.665 11996.998,1606.335 11977.000,1620.000 C11927.964,1649.412 11871.251,1667.618 11806.000,1681.000 C11781.002,1683.000 11755.998,1685.000 11731.000,1687.000 C11658.425,1695.560 11559.114,1659.036 11514.000,1636.000 C11389.475,1572.414 11301.563,1473.374 11258.000,1329.000 C11248.359,1297.048 11248.129,1265.461 11242.000,1228.000 C11233.577,1176.522 11243.542,1112.655 11256.000,1071.000 C11270.227,1023.430 11287.483,979.498 11311.000,941.000 C11369.225,845.686 11456.827,772.248 11570.000,732.000 C11598.481,721.871 11629.752,716.181 11662.000,710.000 C11676.665,708.667 11691.335,707.333 11706.000,706.000 ZM14395.000,706.000 C14638.885,701.788 14799.764,837.790 14870.000,1007.000 C14917.728,1121.985 14919.008,1273.490 14870.000,1389.000 C14812.800,1523.817 14704.148,1620.997 14558.000,1667.000 C14524.187,1677.643 14488.109,1679.305 14449.000,1686.000 C14378.301,1698.102 14279.954,1669.519 14234.000,1650.000 C14095.001,1590.961 13997.975,1489.944 13951.000,1339.000 C13932.808,1280.546 13920.259,1191.978 13935.000,1119.000 C13941.335,1087.635 13947.215,1056.666 13958.000,1029.000 C14013.391,886.901 14111.006,789.526 14253.000,734.000 C14282.868,722.320 14316.647,716.584 14351.000,710.000 C14365.665,708.667 14380.335,707.333 14395.000,706.000 ZM4190.000,716.000 C4490.724,715.050 4729.862,690.267 4862.000,865.000 C4887.350,898.522 4907.439,937.842 4921.000,983.000 C4925.000,1005.331 4929.000,1027.669 4933.000,1050.000 C4943.789,1113.728 4925.490,1181.586 4908.000,1224.000 C4854.098,1354.719 4751.284,1418.965 4597.000,1450.000 C4533.784,1462.716 4452.019,1456.097 4380.000,1456.000 C4380.000,1529.659 4380.000,1603.341 4380.000,1677.000 C4316.673,1677.000 4253.327,1677.000 4190.000,1677.000 C4190.000,1356.699 4190.000,1036.301 4190.000,716.000 ZM5130.000,716.000 C5343.312,716.000 5556.688,716.000 5770.000,716.000 C5770.000,775.327 5770.000,834.673 5770.000,894.000 C5620.015,894.000 5469.985,894.000 5320.000,894.000 C5320.000,963.993 5320.000,1034.007 5320.000,1104.000 C5458.653,1104.333 5597.347,1104.667 5736.000,1105.000 C5736.000,1164.327 5736.000,1223.673 5736.000,1283.000 C5597.347,1283.000 5458.653,1283.000 5320.000,1283.000 C5320.000,1354.659 5320.000,1426.340 5320.000,1498.000 C5469.985,1498.333 5620.015,1498.667 5770.000,1499.000 C5770.000,1558.327 5770.000,1617.673 5770.000,1677.000 C5556.688,1677.000 5343.312,1677.000 5130.000,1677.000 C5130.000,1356.699 5130.000,1036.301 5130.000,716.000 ZM6312.000,716.000 C6349.330,716.000 6386.670,716.000 6424.000,716.000 C6553.654,1036.301 6683.346,1356.699 6813.000,1677.000 C6743.007,1677.000 6672.993,1677.000 6603.000,1677.000 C6524.008,1473.020 6444.992,1268.980 6366.000,1065.000 C6365.667,1065.000 6365.333,1065.000 6365.000,1065.000 C6285.675,1268.980 6206.325,1473.020 6127.000,1677.000 C6057.007,1677.000 5986.993,1677.000 5917.000,1677.000 C6048.653,1356.699 6180.347,1036.301 6312.000,716.000 ZM7003.000,716.000 C7066.327,716.000 7129.673,716.000 7193.000,716.000 C7193.333,917.646 7193.667,1119.353 7194.000,1321.000 C7194.000,1320.333 7194.000,1319.667 7194.000,1319.000 C7344.985,1118.020 7496.015,916.980 7647.000,716.000 C7684.663,716.000 7722.337,716.000 7760.000,716.000 C7760.000,1036.301 7760.000,1356.699 7760.000,1677.000 C7696.673,1677.000 7633.327,1677.000 7570.000,1677.000 C7570.000,1475.687 7570.000,1274.313 7570.000,1073.000 C7569.333,1073.333 7568.667,1073.667 7568.000,1074.000 C7417.015,1274.980 7265.985,1476.020 7115.000,1677.000 C7077.670,1677.000 7040.330,1677.000 7003.000,1677.000 C7003.000,1356.699 7003.000,1036.301 7003.000,716.000 ZM8034.000,716.000 C8241.313,716.000 8448.687,716.000 8656.000,716.000 C8656.000,775.327 8656.000,834.673 8656.000,894.000 C8512.014,894.000 8367.986,894.000 8224.000,894.000 C8224.000,1154.974 8224.000,1416.026 8224.000,1677.000 C8160.673,1677.000 8097.327,1677.000 8034.000,1677.000 C8034.000,1356.699 8034.000,1036.301 8034.000,716.000 ZM8845.000,716.000 C8908.327,716.000 8971.673,716.000 9035.000,716.000 C9035.333,917.646 9035.667,1119.353 9036.000,1321.000 C9036.000,1320.333 9036.000,1319.667 9036.000,1319.000 C9186.985,1118.020 9338.015,916.980 9489.000,716.000 C9526.663,716.000 9564.337,716.000 9602.000,716.000 C9602.000,1036.301 9602.000,1356.699 9602.000,1677.000 C9538.673,1677.000 9475.327,1677.000 9412.000,1677.000 C9412.000,1475.687 9412.000,1274.313 9412.000,1073.000 C9411.333,1073.333 9410.667,1073.667 9410.000,1074.000 C9259.015,1274.980 9107.985,1476.020 8957.000,1677.000 C8919.670,1677.000 8882.330,1677.000 8845.000,1677.000 C8845.000,1356.699 8845.000,1036.301 8845.000,716.000 ZM10554.000,716.000 C10554.000,1036.301 10554.000,1356.699 10554.000,1677.000 C10490.673,1677.000 10427.327,1677.000 10364.000,1677.000 C10364.000,1599.008 10364.000,1520.992 10364.000,1443.000 C10305.116,1442.684 10230.166,1435.778 10186.000,1453.000 C10114.744,1480.786 10046.149,1611.915 10005.000,1677.000 C9934.340,1677.000 9863.660,1677.000 9793.000,1677.000 C9793.000,1676.667 9793.000,1676.333 9793.000,1676.000 C9810.665,1649.003 9828.335,1621.997 9846.000,1595.000 C9880.666,1540.032 9915.348,1486.673 9955.000,1437.000 C9972.850,1414.639 9999.490,1401.166 10018.000,1380.000 C10017.333,1380.000 10016.667,1380.000 10016.000,1380.000 C9999.335,1372.001 9982.665,1363.999 9966.000,1356.000 C9911.731,1323.556 9865.354,1277.156 9839.000,1217.000 C9762.298,1041.914 9849.389,860.992 9962.000,786.000 C10099.234,694.610 10327.684,715.882 10554.000,716.000 ZM12308.000,716.000 C12521.312,716.000 12734.688,716.000 12948.000,716.000 C12948.000,775.327 12948.000,834.673 12948.000,894.000 C12798.015,894.000 12647.985,894.000 12498.000,894.000 C12498.000,963.993 12498.000,1034.007 12498.000,1104.000 C12636.653,1104.333 12775.347,1104.667 12914.000,1105.000 C12914.000,1164.327 12914.000,1223.673 12914.000,1283.000 C12775.347,1283.000 12636.653,1283.000 12498.000,1283.000 C12498.000,1354.659 12498.000,1426.340 12498.000,1498.000 C12647.985,1498.333 12798.015,1498.667 12948.000,1499.000 C12948.000,1558.327 12948.000,1617.673 12948.000,1677.000 C12734.688,1677.000 12521.312,1677.000 12308.000,1677.000 C12308.000,1356.699 12308.000,1036.301 12308.000,716.000 ZM13180.000,716.000 C13387.313,716.000 13594.687,716.000 13802.000,716.000 C13802.000,775.327 13802.000,834.673 13802.000,894.000 C13658.014,894.000 13513.986,894.000 13370.000,894.000 C13370.000,1154.974 13370.000,1416.026 13370.000,1677.000 C13306.673,1677.000 13243.327,1677.000 13180.000,1677.000 C13180.000,1356.699 13180.000,1036.301 13180.000,716.000 ZM16006.000,1498.000 C16006.000,1616.655 16006.000,1735.345 16006.000,1854.000 C15942.673,1854.000 15879.327,1854.000 15816.000,1854.000 C15816.000,1795.006 15816.000,1735.994 15816.000,1677.000 C15607.688,1677.000 15399.313,1677.000 15191.000,1677.000 C15191.000,1735.994 15191.000,1795.006 15191.000,1854.000 C15127.673,1854.000 15064.327,1854.000 15001.000,1854.000 C15001.000,1735.345 15001.000,1616.655 15001.000,1498.000 C15043.662,1498.000 15086.338,1498.000 15129.000,1498.000 C15235.989,1237.359 15343.011,976.641 15450.000,716.000 C15487.663,716.000 15525.337,716.000 15563.000,716.000 C15668.323,976.641 15773.677,1237.359 15879.000,1498.000 C15921.329,1498.000 15963.671,1498.000 16006.000,1498.000 ZM16188.000,716.000 C16251.327,716.000 16314.673,716.000 16378.000,716.000 C16378.000,845.320 16378.000,974.680 16378.000,1104.000 C16501.988,1104.000 16626.012,1104.000 16750.000,1104.000 C16750.000,974.680 16750.000,845.320 16750.000,716.000 C16813.327,716.000 16876.673,716.000 16940.000,716.000 C16940.000,1036.301 16940.000,1356.699 16940.000,1677.000 C16876.673,1677.000 16813.327,1677.000 16750.000,1677.000 C16750.000,1545.680 16750.000,1414.320 16750.000,1283.000 C16626.012,1283.000 16501.988,1283.000 16378.000,1283.000 C16378.000,1414.320 16378.000,1545.680 16378.000,1677.000 C16314.673,1677.000 16251.327,1677.000 16188.000,1677.000 C16188.000,1356.699 16188.000,1036.301 16188.000,716.000 ZM17903.000,716.000 C17903.000,1036.301 17903.000,1356.699 17903.000,1677.000 C17839.673,1677.000 17776.327,1677.000 17713.000,1677.000 C17713.000,1599.008 17713.000,1520.992 17713.000,1443.000 C17654.116,1442.684 17579.166,1435.778 17535.000,1453.000 C17463.744,1480.786 17395.149,1611.915 17354.000,1677.000 C17283.340,1677.000 17212.660,1677.000 17142.000,1677.000 C17142.000,1676.667 17142.000,1676.333 17142.000,1676.000 C17159.665,1649.003 17177.335,1621.997 17195.000,1595.000 C17229.666,1540.032 17264.348,1486.673 17304.000,1437.000 C17321.850,1414.639 17348.490,1401.166 17367.000,1380.000 C17366.333,1380.000 17365.667,1380.000 17365.000,1380.000 C17348.335,1372.001 17331.665,1363.999 17315.000,1356.000 C17260.731,1323.556 17214.354,1277.156 17188.000,1217.000 C17111.298,1041.914 17198.390,860.992 17311.000,786.000 C17448.234,694.610 17676.684,715.882 17903.000,716.000 ZM14416.000,884.000 C14404.668,884.667 14393.332,885.333 14382.000,886.000 C14364.002,889.666 14345.998,893.334 14328.000,897.000 C14237.378,925.381 14173.631,988.540 14140.000,1074.000 C14068.312,1256.165 14169.960,1428.313 14297.000,1483.000 C14330.458,1497.403 14383.455,1516.635 14436.000,1508.000 C14560.997,1487.459 14625.155,1451.094 14679.000,1360.000 C14694.242,1334.214 14704.245,1302.550 14712.000,1270.000 C14754.068,1093.415 14648.502,952.666 14535.000,906.000 C14500.139,891.667 14462.464,888.097 14416.000,884.000 ZM4380.000,894.000 C4380.000,1021.654 4380.000,1149.346 4380.000,1277.000 C4541.348,1278.453 4661.507,1284.660 4726.000,1187.000 C4743.371,1160.696 4761.822,1116.096 4754.000,1067.000 C4726.185,892.410 4580.805,893.584 4380.000,894.000 ZM10364.000,1264.000 C10364.000,1140.679 10364.000,1017.321 10364.000,894.000 C10195.042,892.505 10054.909,884.235 10005.000,1004.000 C9993.719,1031.070 9984.537,1073.511 9992.000,1113.000 C10022.865,1276.308 10172.473,1264.478 10364.000,1264.000 ZM17713.000,1264.000 C17713.000,1140.679 17713.000,1017.321 17713.000,894.000 C17544.042,892.505 17403.909,884.235 17354.000,1004.000 C17342.719,1031.070 17333.537,1073.511 17341.000,1113.000 C17371.865,1276.308 17521.473,1264.478 17713.000,1264.000 ZM15503.000,1064.000 C15446.006,1208.652 15388.994,1353.348 15332.000,1498.000 C15446.655,1498.000 15561.345,1498.000 15676.000,1498.000 C15676.000,1497.667 15676.000,1497.333 15676.000,1497.000 C15618.339,1352.681 15560.661,1208.319 15503.000,1064.000 ZM4.000,1241.000 C22.195,1247.066 37.832,1271.644 50.000,1285.000 C71.331,1305.665 92.669,1326.335 114.000,1347.000 C139.331,1370.998 164.669,1395.002 190.000,1419.000 C256.993,1476.994 324.007,1535.006 391.000,1593.000 C468.745,1651.418 542.179,1717.080 623.000,1772.000 C836.513,1917.089 1053.275,2063.768 1290.000,2186.000 C1403.887,2244.805 1518.023,2307.121 1637.000,2359.000 C1690.325,2382.252 1766.824,2405.757 1792.000,2457.000 C1806.086,2485.671 1806.091,2549.602 1800.000,2589.000 C1799.000,2633.662 1798.000,2678.338 1797.000,2723.000 C1792.225,2754.493 1792.262,2797.327 1796.000,2829.000 C1796.000,2854.664 1796.000,2880.336 1796.000,2906.000 C1796.667,2929.664 1797.333,2953.336 1798.000,2977.000 C1801.000,3040.660 1804.000,3104.340 1807.000,3168.000 C1811.666,3213.662 1816.334,3259.338 1821.000,3305.000 C1848.927,3451.429 1865.857,3591.810 1927.000,3703.000 C2038.384,3905.554 2201.435,4055.996 2379.000,4192.000 C2429.305,4230.531 2476.010,4272.838 2525.000,4312.000 C2534.275,4319.415 2572.747,4350.199 2572.000,4360.000 C2571.667,4360.000 2571.333,4360.000 2571.000,4360.000 C2523.516,4336.677 2478.148,4307.608 2434.000,4280.000 C2400.670,4261.335 2367.330,4242.665 2334.000,4224.000 C2271.673,4187.004 2209.327,4149.996 2147.000,4113.000 C2036.923,4049.237 1929.980,3983.896 1829.000,3912.000 C1769.530,3869.658 1709.011,3821.598 1667.000,3762.000 C1637.993,3720.850 1614.083,3675.299 1594.000,3625.000 C1580.065,3590.098 1575.643,3554.396 1565.000,3516.000 C1533.632,3402.835 1527.355,3277.735 1507.000,3152.000 C1506.333,3132.669 1505.667,3113.331 1505.000,3094.000 C1491.195,3007.789 1501.953,2911.939 1486.000,2830.000 C1472.022,2758.201 1448.505,2699.614 1413.000,2650.000 C1340.370,2548.509 1211.554,2512.425 1097.000,2452.000 C956.119,2377.688 823.585,2300.949 698.000,2213.000 C474.072,2056.181 256.732,1820.427 127.000,1570.000 C92.094,1502.619 59.577,1430.260 34.000,1355.000 C21.562,1318.401 16.020,1275.913 -0.000,1242.000 C1.333,1241.667 2.667,1241.333 4.000,1241.000 ZM249.000,1962.000 C258.144,1968.195 262.131,1986.296 268.000,1996.000 C280.999,2015.998 294.001,2036.002 307.000,2056.000 C344.478,2111.761 405.126,2184.777 456.000,2227.000 C523.257,2282.821 588.585,2339.350 661.000,2391.000 C742.692,2449.267 835.283,2492.342 924.000,2544.000 C941.332,2551.666 958.668,2559.334 976.000,2567.000 C1046.194,2602.987 1123.306,2633.346 1198.000,2665.000 C1248.849,2686.549 1309.026,2701.053 1333.000,2749.000 C1351.256,2785.511 1346.250,2827.961 1354.000,2878.000 C1358.333,2951.326 1362.667,3024.674 1367.000,3098.000 C1369.333,3124.997 1371.667,3152.003 1374.000,3179.000 C1376.391,3193.632 1381.862,3214.508 1378.000,3228.000 C1377.667,3228.000 1377.333,3228.000 1377.000,3228.000 C1344.395,3224.477 1308.084,3205.918 1280.000,3194.000 C1208.179,3163.521 1137.120,3139.402 1070.000,3107.000 C942.934,3045.659 824.358,2985.390 718.000,2905.000 C680.862,2876.930 646.418,2838.963 618.000,2802.000 C523.206,2678.702 438.984,2542.652 380.000,2383.000 C343.232,2283.479 300.228,2181.782 274.000,2071.000 C269.340,2051.319 241.902,1977.585 249.000,1962.000 ZM6052.000,2264.000 C6221.439,2261.453 6361.644,2421.404 6287.000,2596.000 C6250.330,2681.773 6184.603,2724.551 6078.000,2742.000 C6035.030,2749.033 5990.194,2731.335 5964.000,2718.000 C5877.308,2673.865 5795.228,2565.637 5840.000,2428.000 C5862.536,2358.719 5913.764,2306.783 5979.000,2280.000 C5994.665,2275.667 6010.335,2271.333 6026.000,2267.000 C6034.666,2266.000 6043.334,2265.000 6052.000,2264.000 ZM9179.000,2264.000 C9348.439,2261.453 9488.644,2421.404 9414.000,2596.000 C9377.330,2681.773 9311.603,2724.551 9205.000,2742.000 C9162.030,2749.033 9117.194,2731.335 9091.000,2718.000 C9004.308,2673.865 8922.228,2565.637 8967.000,2428.000 C8989.536,2358.719 9040.764,2306.783 9106.000,2280.000 C9121.665,2275.667 9137.335,2271.333 9153.000,2267.000 C9161.666,2266.000 9170.334,2265.000 9179.000,2264.000 ZM10719.000,2264.000 C10888.439,2261.453 11028.644,2421.404 10954.000,2596.000 C10917.330,2681.773 10851.603,2724.551 10745.000,2742.000 C10702.030,2749.033 10657.194,2731.335 10631.000,2718.000 C10544.308,2673.865 10462.228,2565.637 10507.000,2428.000 C10529.536,2358.719 10580.764,2306.783 10646.000,2280.000 C10661.665,2275.667 10677.335,2271.333 10693.000,2267.000 C10701.666,2266.000 10710.334,2265.000 10719.000,2264.000 ZM11990.000,2264.000 C12159.439,2261.453 12299.644,2421.404 12225.000,2596.000 C12188.330,2681.773 12122.603,2724.551 12016.000,2742.000 C11973.030,2749.033 11928.194,2731.335 11902.000,2718.000 C11815.308,2673.865 11733.228,2565.637 11778.000,2428.000 C11800.536,2358.719 11851.764,2306.783 11917.000,2280.000 C11932.665,2275.667 11948.335,2271.333 11964.000,2267.000 C11972.666,2266.000 11981.334,2265.000 11990.000,2264.000 ZM13027.000,2264.000 C13127.477,2262.258 13163.493,2299.133 13218.000,2341.000 C13216.334,2343.000 13214.667,2345.000 13213.000,2347.000 C13196.330,2355.332 13163.419,2406.810 13150.000,2389.000 C13141.334,2383.001 13132.666,2376.999 13124.000,2371.000 C13105.366,2360.010 13082.338,2355.163 13057.000,2351.000 C12930.192,2330.164 12857.103,2484.883 12917.000,2586.000 C12947.707,2637.839 13025.703,2676.131 13105.000,2644.000 C13113.771,2640.446 13159.000,2609.000 13159.000,2609.000 C13178.665,2627.331 13198.335,2645.668 13218.000,2664.000 C13212.667,2669.666 13207.333,2675.334 13202.000,2681.000 C13188.001,2690.999 13173.999,2701.001 13160.000,2711.000 C13129.458,2729.069 13095.740,2734.874 13053.000,2742.000 C13013.528,2748.581 12973.369,2732.674 12948.000,2722.000 C12838.214,2675.807 12753.273,2520.964 12835.000,2383.000 C12864.261,2333.604 12907.839,2297.584 12965.000,2276.000 C12983.512,2269.010 13006.795,2271.892 13027.000,2264.000 ZM16250.000,2264.000 C16419.439,2261.453 16559.644,2421.404 16485.000,2596.000 C16448.330,2681.773 16382.603,2724.551 16276.000,2742.000 C16233.030,2749.033 16188.194,2731.335 16162.000,2718.000 C16075.308,2673.865 15993.228,2565.637 16038.000,2428.000 C16060.536,2358.719 16111.764,2306.783 16177.000,2280.000 C16192.665,2275.667 16208.335,2271.333 16224.000,2267.000 C16232.666,2266.000 16241.334,2265.000 16250.000,2264.000 ZM4110.000,2269.000 C4140.664,2269.000 4171.336,2269.000 4202.000,2269.000 C4202.000,2366.990 4202.000,2465.010 4202.000,2563.000 C4202.667,2562.667 4203.333,2562.333 4204.000,2562.000 C4276.993,2464.343 4350.007,2366.657 4423.000,2269.000 C4440.998,2269.000 4459.002,2269.000 4477.000,2269.000 C4477.000,2424.984 4477.000,2581.016 4477.000,2737.000 C4446.336,2737.000 4415.664,2737.000 4385.000,2737.000 C4385.000,2639.010 4385.000,2540.990 4385.000,2443.000 C4384.333,2443.333 4383.667,2443.667 4383.000,2444.000 C4310.007,2541.657 4236.993,2639.343 4164.000,2737.000 C4146.002,2737.000 4127.998,2737.000 4110.000,2737.000 C4110.000,2581.016 4110.000,2424.984 4110.000,2269.000 ZM4605.000,2269.000 C4635.664,2269.000 4666.336,2269.000 4697.000,2269.000 C4697.000,2331.994 4697.000,2395.006 4697.000,2458.000 C4757.327,2458.000 4817.673,2458.000 4878.000,2458.000 C4878.000,2395.006 4878.000,2331.994 4878.000,2269.000 C4908.664,2269.000 4939.336,2269.000 4970.000,2269.000 C4970.000,2424.984 4970.000,2581.016 4970.000,2737.000 C4939.336,2737.000 4908.664,2737.000 4878.000,2737.000 C4878.000,2673.006 4878.000,2608.994 4878.000,2545.000 C4817.673,2545.000 4757.327,2545.000 4697.000,2545.000 C4697.000,2608.994 4697.000,2673.006 4697.000,2737.000 C4666.336,2737.000 4635.664,2737.000 4605.000,2737.000 C4605.000,2581.016 4605.000,2424.984 4605.000,2269.000 ZM5366.000,2269.000 C5396.664,2269.000 5427.336,2269.000 5458.000,2269.000 C5458.000,2293.998 5458.000,2319.002 5458.000,2344.000 C5458.667,2343.667 5459.333,2343.333 5460.000,2343.000 C5480.111,2300.610 5568.647,2284.055 5627.000,2302.000 C5701.961,2325.052 5737.882,2381.991 5752.000,2467.000 C5772.369,2589.649 5652.644,2703.319 5531.000,2672.000 C5497.839,2663.462 5480.877,2644.588 5458.000,2627.000 C5458.000,2663.663 5458.000,2700.337 5458.000,2737.000 C5427.336,2737.000 5396.664,2737.000 5366.000,2737.000 C5366.000,2700.337 5366.000,2663.663 5366.000,2627.000 C5343.256,2644.579 5326.752,2663.050 5294.000,2672.000 C5172.618,2705.169 5052.573,2588.056 5073.000,2466.000 C5087.104,2381.723 5123.514,2324.848 5198.000,2302.000 C5258.180,2283.540 5344.061,2299.413 5365.000,2344.000 C5365.333,2344.000 5365.667,2344.000 5366.000,2344.000 C5366.000,2319.002 5366.000,2293.998 5366.000,2269.000 ZM6414.000,2269.000 C6562.031,2267.710 6681.320,2258.862 6744.000,2345.000 C6755.648,2361.007 6765.192,2381.719 6771.000,2403.000 C6802.084,2516.899 6723.279,2596.292 6645.000,2620.000 C6606.664,2631.611 6556.013,2630.180 6506.000,2630.000 C6506.000,2665.663 6506.000,2701.337 6506.000,2737.000 C6475.336,2737.000 6444.664,2737.000 6414.000,2737.000 C6414.000,2581.016 6414.000,2424.984 6414.000,2269.000 ZM6879.000,2269.000 C6895.461,2268.729 6923.440,2265.212 6936.000,2271.000 C6993.994,2344.659 7052.006,2418.341 7110.000,2492.000 C7111.923,2490.608 7110.599,2491.899 7112.000,2490.000 C7171.327,2416.341 7230.673,2342.659 7290.000,2269.000 C7307.998,2269.000 7326.002,2269.000 7344.000,2269.000 C7344.000,2424.984 7344.000,2581.016 7344.000,2737.000 C7313.336,2737.000 7282.664,2737.000 7252.000,2737.000 C7252.000,2637.677 7252.000,2538.323 7252.000,2439.000 C7205.005,2496.994 7157.995,2555.006 7111.000,2613.000 C7110.667,2613.000 7110.333,2613.000 7110.000,2613.000 C7063.671,2555.006 7017.329,2496.994 6971.000,2439.000 C6971.000,2538.323 6971.000,2637.677 6971.000,2737.000 C6940.336,2737.000 6909.664,2737.000 6879.000,2737.000 C6879.000,2581.016 6879.000,2424.984 6879.000,2269.000 ZM7635.000,2269.000 C7653.332,2269.000 7671.668,2269.000 7690.000,2269.000 C7752.994,2424.984 7816.006,2581.016 7879.000,2737.000 C7845.003,2737.000 7810.997,2737.000 7777.000,2737.000 C7766.001,2708.669 7754.999,2680.331 7744.000,2652.000 C7688.672,2652.000 7633.328,2652.000 7578.000,2652.000 C7567.001,2680.331 7555.999,2708.669 7545.000,2737.000 C7511.003,2737.000 7476.997,2737.000 7443.000,2737.000 C7443.000,2736.667 7443.000,2736.333 7443.000,2736.000 C7506.994,2580.349 7571.006,2424.651 7635.000,2269.000 ZM7972.000,2269.000 C8002.664,2269.000 8033.336,2269.000 8064.000,2269.000 C8064.000,2395.987 8064.000,2523.013 8064.000,2650.000 C8123.327,2650.000 8182.673,2650.000 8242.000,2650.000 C8242.000,2523.013 8242.000,2395.987 8242.000,2269.000 C8272.664,2269.000 8303.336,2269.000 8334.000,2269.000 C8334.000,2395.987 8334.000,2523.013 8334.000,2650.000 C8353.998,2650.000 8374.002,2650.000 8394.000,2650.000 C8394.000,2707.661 8394.000,2765.339 8394.000,2823.000 C8363.336,2823.000 8332.664,2823.000 8302.000,2823.000 C8302.000,2794.336 8302.000,2765.664 8302.000,2737.000 C8192.011,2737.000 8081.989,2737.000 7972.000,2737.000 C7972.000,2581.016 7972.000,2424.984 7972.000,2269.000 ZM8486.000,2269.000 C8516.664,2269.000 8547.336,2269.000 8578.000,2269.000 C8578.000,2366.990 8578.000,2465.010 8578.000,2563.000 C8578.667,2562.667 8579.333,2562.333 8580.000,2562.000 C8652.993,2464.343 8726.007,2366.657 8799.000,2269.000 C8816.998,2269.000 8835.002,2269.000 8853.000,2269.000 C8853.000,2424.984 8853.000,2581.016 8853.000,2737.000 C8822.336,2737.000 8791.664,2737.000 8761.000,2737.000 C8761.000,2639.010 8761.000,2540.990 8761.000,2443.000 C8760.333,2443.333 8759.667,2443.667 8759.000,2444.000 C8686.007,2541.657 8612.993,2639.343 8540.000,2737.000 C8522.002,2737.000 8503.998,2737.000 8486.000,2737.000 C8486.000,2581.016 8486.000,2424.984 8486.000,2269.000 ZM9535.000,2269.000 C9565.664,2269.000 9596.336,2269.000 9627.000,2269.000 C9627.000,2331.994 9627.000,2395.006 9627.000,2458.000 C9687.327,2458.000 9747.673,2458.000 9808.000,2458.000 C9808.000,2395.006 9808.000,2331.994 9808.000,2269.000 C9838.664,2269.000 9869.336,2269.000 9900.000,2269.000 C9900.000,2424.984 9900.000,2581.016 9900.000,2737.000 C9869.336,2737.000 9838.664,2737.000 9808.000,2737.000 C9808.000,2673.006 9808.000,2608.994 9808.000,2545.000 C9747.673,2545.000 9687.327,2545.000 9627.000,2545.000 C9627.000,2608.994 9627.000,2673.006 9627.000,2737.000 C9596.336,2737.000 9565.664,2737.000 9535.000,2737.000 C9535.000,2581.016 9535.000,2424.984 9535.000,2269.000 ZM10028.000,2269.000 C10058.664,2269.000 10089.336,2269.000 10120.000,2269.000 C10120.000,2331.994 10120.000,2395.006 10120.000,2458.000 C10180.327,2458.000 10240.673,2458.000 10301.000,2458.000 C10301.000,2395.006 10301.000,2331.994 10301.000,2269.000 C10331.664,2269.000 10362.336,2269.000 10393.000,2269.000 C10393.000,2424.984 10393.000,2581.016 10393.000,2737.000 C10362.336,2737.000 10331.664,2737.000 10301.000,2737.000 C10301.000,2673.006 10301.000,2608.994 10301.000,2545.000 C10240.673,2545.000 10180.327,2545.000 10120.000,2545.000 C10120.000,2608.994 10120.000,2673.006 10120.000,2737.000 C10089.336,2737.000 10058.664,2737.000 10028.000,2737.000 C10028.000,2581.016 10028.000,2424.984 10028.000,2269.000 ZM11320.000,2269.000 C11350.664,2269.000 11381.336,2269.000 11412.000,2269.000 C11412.000,2331.327 11412.000,2393.673 11412.000,2456.000 C11435.758,2456.056 11465.278,2458.753 11482.000,2451.000 C11502.295,2441.590 11513.383,2416.490 11525.000,2398.000 C11552.664,2355.004 11580.336,2311.996 11608.000,2269.000 C11642.663,2269.000 11677.337,2269.000 11712.000,2269.000 C11678.670,2320.995 11645.330,2373.005 11612.000,2425.000 C11596.454,2449.682 11577.065,2485.664 11549.000,2497.000 C11549.000,2497.667 11549.000,2498.333 11549.000,2499.000 C11579.560,2509.692 11596.793,2547.243 11613.000,2573.000 C11648.330,2627.661 11683.670,2682.339 11719.000,2737.000 C11702.930,2737.230 11620.496,2740.732 11614.000,2735.000 C11585.336,2691.004 11556.664,2646.996 11528.000,2603.000 C11515.341,2582.909 11504.242,2557.233 11481.000,2548.000 C11464.246,2541.344 11433.682,2544.813 11412.000,2545.000 C11412.000,2608.994 11412.000,2673.006 11412.000,2737.000 C11381.336,2737.000 11350.664,2737.000 11320.000,2737.000 C11320.000,2581.016 11320.000,2424.984 11320.000,2269.000 ZM12346.000,2269.000 C12376.664,2269.000 12407.336,2269.000 12438.000,2269.000 C12438.000,2331.994 12438.000,2395.006 12438.000,2458.000 C12498.327,2458.000 12558.673,2458.000 12619.000,2458.000 C12619.000,2395.006 12619.000,2331.994 12619.000,2269.000 C12649.664,2269.000 12680.336,2269.000 12711.000,2269.000 C12711.000,2424.984 12711.000,2581.016 12711.000,2737.000 C12680.336,2737.000 12649.664,2737.000 12619.000,2737.000 C12619.000,2673.006 12619.000,2608.994 12619.000,2545.000 C12558.673,2545.000 12498.327,2545.000 12438.000,2545.000 C12438.000,2608.994 12438.000,2673.006 12438.000,2737.000 C12407.336,2737.000 12376.664,2737.000 12346.000,2737.000 C12346.000,2581.016 12346.000,2424.984 12346.000,2269.000 ZM13460.000,2269.000 C13478.332,2269.000 13496.669,2269.000 13515.000,2269.000 C13577.994,2424.984 13641.006,2581.016 13704.000,2737.000 C13670.003,2737.000 13635.997,2737.000 13602.000,2737.000 C13591.001,2708.669 13579.999,2680.331 13569.000,2652.000 C13513.672,2652.000 13458.328,2652.000 13403.000,2652.000 C13392.001,2680.331 13380.999,2708.669 13370.000,2737.000 C13336.003,2737.000 13301.997,2737.000 13268.000,2737.000 C13268.000,2736.667 13268.000,2736.333 13268.000,2736.000 C13331.994,2580.349 13396.006,2424.651 13460.000,2269.000 ZM13953.000,2269.000 C13971.332,2269.000 13989.669,2269.000 14008.000,2269.000 C14070.994,2424.984 14134.006,2581.016 14197.000,2737.000 C14163.003,2737.000 14128.997,2737.000 14095.000,2737.000 C14056.671,2637.677 14018.330,2538.323 13980.000,2439.000 C13979.333,2439.333 13978.667,2439.667 13978.000,2440.000 C13939.671,2538.990 13901.330,2638.010 13863.000,2737.000 C13829.003,2737.000 13794.997,2737.000 13761.000,2737.000 C13761.000,2736.667 13761.000,2736.333 13761.000,2736.000 C13824.994,2580.349 13889.006,2424.651 13953.000,2269.000 ZM14226.000,2269.000 C14342.322,2269.000 14458.678,2269.000 14575.000,2269.000 C14574.667,2297.997 14574.333,2327.003 14574.000,2356.000 C14531.338,2356.000 14488.662,2356.000 14446.000,2356.000 C14446.000,2482.987 14446.000,2610.013 14446.000,2737.000 C14415.336,2737.000 14384.664,2737.000 14354.000,2737.000 C14354.000,2610.013 14354.000,2482.987 14354.000,2356.000 C14311.338,2356.000 14268.662,2356.000 14226.000,2356.000 C14226.000,2327.003 14226.000,2297.997 14226.000,2269.000 ZM14667.000,2269.000 C14697.664,2269.000 14728.336,2269.000 14759.000,2269.000 C14759.000,2366.990 14759.000,2465.010 14759.000,2563.000 C14759.667,2562.667 14760.333,2562.333 14761.000,2562.000 C14833.993,2464.343 14907.007,2366.657 14980.000,2269.000 C14997.998,2269.000 15016.002,2269.000 15034.000,2269.000 C15034.000,2424.984 15034.000,2581.016 15034.000,2737.000 C15003.336,2737.000 14972.664,2737.000 14942.000,2737.000 C14942.000,2639.010 14942.000,2540.990 14942.000,2443.000 C14941.333,2443.333 14940.667,2443.667 14940.000,2444.000 C14867.007,2541.657 14793.993,2639.343 14721.000,2737.000 C14703.002,2737.000 14684.998,2737.000 14667.000,2737.000 C14667.000,2581.016 14667.000,2424.984 14667.000,2269.000 ZM15162.000,2269.000 C15192.664,2269.000 15223.336,2269.000 15254.000,2269.000 C15254.000,2331.994 15254.000,2395.006 15254.000,2458.000 C15314.327,2458.000 15374.673,2458.000 15435.000,2458.000 C15435.000,2395.006 15435.000,2331.994 15435.000,2269.000 C15465.664,2269.000 15496.336,2269.000 15527.000,2269.000 C15527.000,2424.984 15527.000,2581.016 15527.000,2737.000 C15496.336,2737.000 15465.664,2737.000 15435.000,2737.000 C15435.000,2673.006 15435.000,2608.994 15435.000,2545.000 C15374.673,2545.000 15314.327,2545.000 15254.000,2545.000 C15254.000,2608.994 15254.000,2673.006 15254.000,2737.000 C15223.336,2737.000 15192.664,2737.000 15162.000,2737.000 C15162.000,2581.016 15162.000,2424.984 15162.000,2269.000 ZM15661.000,2269.000 C15761.990,2269.000 15863.010,2269.000 15964.000,2269.000 C15964.000,2297.997 15964.000,2327.003 15964.000,2356.000 C15893.674,2356.000 15823.326,2356.000 15753.000,2356.000 C15753.000,2482.987 15753.000,2610.013 15753.000,2737.000 C15722.336,2737.000 15691.664,2737.000 15661.000,2737.000 C15661.000,2581.016 15661.000,2424.984 15661.000,2269.000 ZM16611.000,2269.000 C16701.855,2268.099 16836.550,2257.017 16894.000,2291.000 C16934.591,2315.010 16967.890,2380.338 16941.000,2443.000 C16930.042,2468.536 16911.419,2477.917 16890.000,2493.000 C16890.000,2493.333 16890.000,2493.667 16890.000,2494.000 C16971.594,2506.340 16988.626,2627.567 16940.000,2689.000 C16887.482,2755.350 16728.484,2737.386 16611.000,2737.000 C16611.000,2581.016 16611.000,2424.984 16611.000,2269.000 ZM17215.000,2269.000 C17233.332,2269.000 17251.669,2269.000 17270.000,2269.000 C17332.994,2424.984 17396.006,2581.016 17459.000,2737.000 C17425.003,2737.000 17390.997,2737.000 17357.000,2737.000 C17346.001,2708.669 17334.999,2680.331 17324.000,2652.000 C17268.672,2652.000 17213.328,2652.000 17158.000,2652.000 C17147.001,2680.331 17135.999,2708.669 17125.000,2737.000 C17091.003,2737.000 17056.997,2737.000 17023.000,2737.000 C17023.000,2736.667 17023.000,2736.333 17023.000,2736.000 C17086.994,2580.349 17151.006,2424.651 17215.000,2269.000 ZM17886.000,2269.000 C17886.000,2424.984 17886.000,2581.016 17886.000,2737.000 C17855.336,2737.000 17824.664,2737.000 17794.000,2737.000 C17794.000,2699.004 17794.000,2660.996 17794.000,2623.000 C17764.940,2622.771 17727.730,2619.279 17706.000,2628.000 C17680.238,2638.340 17630.905,2709.912 17620.000,2737.000 C17585.337,2737.000 17550.663,2737.000 17516.000,2737.000 C17516.333,2736.000 17516.667,2735.000 17517.000,2734.000 C17529.665,2714.335 17542.335,2694.665 17555.000,2675.000 C17574.904,2643.391 17597.512,2617.043 17625.000,2593.000 C17625.000,2592.667 17625.000,2592.333 17625.000,2592.000 C17522.311,2564.081 17496.432,2418.328 17564.000,2333.000 C17624.400,2256.724 17750.372,2268.581 17886.000,2269.000 ZM6052.000,2351.000 C6039.001,2354.000 6025.999,2357.000 6013.000,2360.000 C5971.245,2376.427 5940.427,2410.317 5927.000,2455.000 C5894.722,2562.418 5977.509,2674.105 6088.000,2654.000 C6179.993,2637.261 6245.619,2540.770 6199.000,2434.000 C6176.100,2381.554 6128.774,2350.356 6052.000,2351.000 ZM9179.000,2351.000 C9166.001,2354.000 9152.999,2357.000 9140.000,2360.000 C9098.245,2376.427 9067.427,2410.317 9054.000,2455.000 C9021.722,2562.418 9104.509,2674.105 9215.000,2654.000 C9306.993,2637.261 9372.619,2540.770 9326.000,2434.000 C9303.100,2381.554 9255.774,2350.356 9179.000,2351.000 ZM10719.000,2351.000 C10706.001,2354.000 10692.999,2357.000 10680.000,2360.000 C10638.245,2376.427 10607.427,2410.317 10594.000,2455.000 C10561.722,2562.418 10644.509,2674.105 10755.000,2654.000 C10846.993,2637.261 10912.619,2540.770 10866.000,2434.000 C10843.100,2381.554 10795.774,2350.356 10719.000,2351.000 ZM11990.000,2351.000 C11977.001,2354.000 11963.999,2357.000 11951.000,2360.000 C11909.245,2376.427 11878.427,2410.317 11865.000,2455.000 C11832.722,2562.418 11915.509,2674.105 12026.000,2654.000 C12117.993,2637.261 12183.619,2540.770 12137.000,2434.000 C12114.100,2381.554 12066.774,2350.356 11990.000,2351.000 ZM16250.000,2351.000 C16237.001,2354.000 16223.999,2357.000 16211.000,2360.000 C16169.245,2376.427 16138.427,2410.317 16125.000,2455.000 C16092.722,2562.418 16175.509,2674.105 16286.000,2654.000 C16377.993,2637.261 16443.619,2540.770 16397.000,2434.000 C16374.100,2381.554 16326.774,2350.356 16250.000,2351.000 ZM6506.000,2356.000 C6506.000,2418.327 6506.000,2480.673 6506.000,2543.000 C6589.801,2544.128 6656.883,2544.394 6681.000,2486.000 C6685.859,2474.234 6691.502,2454.412 6688.000,2435.000 C6673.873,2356.698 6600.035,2355.112 6506.000,2356.000 ZM16703.000,2356.000 C16703.000,2389.330 16703.000,2422.670 16703.000,2456.000 C16766.230,2456.928 16876.821,2473.367 16863.000,2398.000 C16852.670,2341.668 16768.515,2355.135 16703.000,2356.000 ZM17794.000,2536.000 C17794.000,2476.006 17794.000,2415.994 17794.000,2356.000 C17697.839,2354.732 17625.976,2353.904 17612.000,2435.000 C17608.731,2453.966 17615.083,2472.403 17620.000,2484.000 C17643.896,2540.366 17713.033,2536.781 17794.000,2536.000 ZM5255.000,2381.000 C5245.334,2383.333 5235.666,2385.667 5226.000,2388.000 C5200.732,2398.437 5180.794,2420.072 5171.000,2446.000 C5143.369,2519.145 5200.968,2601.945 5280.000,2588.000 C5401.126,2566.627 5395.083,2379.095 5255.000,2381.000 ZM5549.000,2381.000 C5539.334,2383.333 5529.666,2385.667 5520.000,2388.000 C5495.838,2397.981 5475.891,2418.756 5466.000,2443.000 C5436.044,2516.427 5493.407,2602.221 5574.000,2588.000 C5695.123,2566.627 5689.065,2379.093 5549.000,2381.000 ZM7661.000,2437.000 C7644.335,2479.329 7627.665,2521.671 7611.000,2564.000 C7644.330,2564.000 7677.670,2564.000 7711.000,2564.000 C7711.000,2563.667 7711.000,2563.333 7711.000,2563.000 C7694.335,2521.004 7677.665,2478.996 7661.000,2437.000 ZM13486.000,2437.000 C13469.335,2479.329 13452.665,2521.671 13436.000,2564.000 C13469.330,2564.000 13502.670,2564.000 13536.000,2564.000 C13536.000,2563.667 13536.000,2563.333 13536.000,2563.000 C13519.335,2521.004 13502.665,2478.996 13486.000,2437.000 ZM17241.000,2437.000 C17224.335,2479.329 17207.665,2521.671 17191.000,2564.000 C17224.330,2564.000 17257.670,2564.000 17291.000,2564.000 C17291.000,2563.667 17291.000,2563.333 17291.000,2563.000 C17274.335,2521.004 17257.665,2478.996 17241.000,2437.000 ZM11048.000,2518.000 C11103.328,2518.000 11158.672,2518.000 11214.000,2518.000 C11214.000,2535.665 11214.000,2553.335 11214.000,2571.000 C11158.672,2571.000 11103.328,2571.000 11048.000,2571.000 C11048.000,2553.335 11048.000,2535.665 11048.000,2518.000 ZM16703.000,2536.000 C16703.000,2573.663 16703.000,2611.337 16703.000,2649.000 C16777.429,2649.960 16869.413,2665.450 16881.000,2601.000 C16895.751,2518.949 16773.664,2535.194 16703.000,2536.000 ZM1496.000,3741.000 C1473.119,3740.483 1452.987,3731.254 1434.000,3726.000 C1376.000,3709.951 1319.861,3695.927 1268.000,3674.000 C1186.469,3639.529 1106.899,3614.541 1037.000,3570.000 C907.469,3487.460 788.166,3322.338 713.000,3184.000 C681.044,3125.186 649.741,3066.155 619.000,3003.000 C608.366,2981.154 594.490,2956.784 589.000,2931.000 C589.333,2931.000 589.667,2931.000 590.000,2931.000 C609.043,2944.278 621.134,2965.554 639.000,2980.000 C671.260,3006.084 701.988,3037.085 738.000,3059.000 C796.602,3094.663 855.390,3132.028 917.000,3165.000 C980.031,3198.732 1047.067,3225.538 1112.000,3257.000 C1178.830,3289.381 1252.298,3311.326 1323.000,3338.000 C1338.180,3343.727 1390.406,3353.506 1397.000,3364.000 C1400.333,3384.998 1403.667,3406.002 1407.000,3427.000 C1415.999,3469.662 1425.001,3512.338 1434.000,3555.000 C1447.225,3598.424 1457.433,3643.803 1474.000,3685.000 C1480.830,3701.984 1494.648,3720.638 1496.000,3741.000 ZM4785.000,3174.000 C4954.439,3171.453 5094.644,3331.404 5020.000,3506.000 C4983.330,3591.773 4917.603,3634.551 4811.000,3652.000 C4768.030,3659.033 4723.194,3641.335 4697.000,3628.000 C4610.308,3583.865 4528.228,3475.637 4573.000,3338.000 C4595.541,3268.705 4646.748,3216.789 4712.000,3190.000 C4727.665,3185.667 4743.335,3181.333 4759.000,3177.000 C4767.666,3176.000 4776.334,3175.000 4785.000,3174.000 ZM4116.000,3179.000 C4146.664,3179.000 4177.336,3179.000 4208.000,3179.000 C4208.000,3241.327 4208.000,3303.673 4208.000,3366.000 C4231.758,3366.056 4261.278,3368.753 4278.000,3361.000 C4298.295,3351.590 4309.383,3326.490 4321.000,3308.000 C4348.664,3265.004 4376.336,3221.996 4404.000,3179.000 C4438.663,3179.000 4473.337,3179.000 4508.000,3179.000 C4474.670,3230.995 4441.330,3283.005 4408.000,3335.000 C4392.454,3359.682 4373.065,3395.664 4345.000,3407.000 C4345.000,3407.667 4345.000,3408.333 4345.000,3409.000 C4375.560,3419.692 4392.793,3457.243 4409.000,3483.000 C4444.330,3537.661 4479.670,3592.339 4515.000,3647.000 C4498.930,3647.230 4416.496,3650.732 4410.000,3645.000 C4381.336,3601.004 4352.664,3556.996 4324.000,3513.000 C4311.341,3492.909 4300.242,3467.233 4277.000,3458.000 C4260.246,3451.344 4229.682,3454.813 4208.000,3455.000 C4208.000,3518.994 4208.000,3583.006 4208.000,3647.000 C4177.336,3647.000 4146.664,3647.000 4116.000,3647.000 C4116.000,3491.016 4116.000,3334.984 4116.000,3179.000 ZM5141.000,3179.000 C5157.461,3178.729 5185.440,3175.212 5198.000,3181.000 C5255.994,3254.659 5314.006,3328.341 5372.000,3402.000 C5373.923,3400.608 5372.599,3401.899 5374.000,3400.000 C5433.327,3326.341 5492.673,3252.659 5552.000,3179.000 C5569.998,3179.000 5588.002,3179.000 5606.000,3179.000 C5606.000,3334.984 5606.000,3491.016 5606.000,3647.000 C5575.336,3647.000 5544.664,3647.000 5514.000,3647.000 C5514.000,3547.677 5514.000,3448.323 5514.000,3349.000 C5467.005,3406.994 5419.995,3465.006 5373.000,3523.000 C5372.667,3523.000 5372.333,3523.000 5372.000,3523.000 C5325.671,3465.006 5279.329,3406.994 5233.000,3349.000 C5233.000,3448.323 5233.000,3547.677 5233.000,3647.000 C5202.336,3647.000 5171.664,3647.000 5141.000,3647.000 C5141.000,3491.016 5141.000,3334.984 5141.000,3179.000 ZM5740.000,3179.000 C5859.988,3179.000 5980.012,3179.000 6100.000,3179.000 C6100.000,3334.984 6100.000,3491.016 6100.000,3647.000 C6069.336,3647.000 6038.664,3647.000 6008.000,3647.000 C6008.000,3520.013 6008.000,3392.987 6008.000,3266.000 C5949.339,3266.000 5890.661,3266.000 5832.000,3266.000 C5832.000,3392.987 5832.000,3520.013 5832.000,3647.000 C5801.336,3647.000 5770.664,3647.000 5740.000,3647.000 C5740.000,3491.016 5740.000,3334.984 5740.000,3179.000 ZM6380.000,3179.000 C6398.332,3179.000 6416.668,3179.000 6435.000,3179.000 C6497.994,3334.984 6561.006,3491.016 6624.000,3647.000 C6590.003,3647.000 6555.997,3647.000 6522.000,3647.000 C6511.001,3618.669 6499.999,3590.330 6489.000,3562.000 C6433.672,3562.000 6378.328,3562.000 6323.000,3562.000 C6312.001,3590.330 6300.999,3618.669 6290.000,3647.000 C6256.003,3647.000 6221.997,3647.000 6188.000,3647.000 C6188.000,3646.667 6188.000,3646.333 6188.000,3646.000 C6251.994,3490.349 6316.006,3334.651 6380.000,3179.000 ZM6712.000,3179.000 C6742.664,3179.000 6773.336,3179.000 6804.000,3179.000 C6804.000,3241.994 6804.000,3305.006 6804.000,3368.000 C6864.327,3368.000 6924.673,3368.000 6985.000,3368.000 C6985.000,3305.006 6985.000,3241.994 6985.000,3179.000 C7015.664,3179.000 7046.336,3179.000 7077.000,3179.000 C7077.000,3334.984 7077.000,3491.016 7077.000,3647.000 C7046.336,3647.000 7015.664,3647.000 6985.000,3647.000 C6985.000,3583.006 6985.000,3518.994 6985.000,3455.000 C6924.673,3455.000 6864.327,3455.000 6804.000,3455.000 C6804.000,3518.994 6804.000,3583.006 6804.000,3647.000 C6773.336,3647.000 6742.664,3647.000 6712.000,3647.000 C6712.000,3491.016 6712.000,3334.984 6712.000,3179.000 ZM7205.000,3179.000 C7235.664,3179.000 7266.336,3179.000 7297.000,3179.000 C7297.000,3276.990 7297.000,3375.010 7297.000,3473.000 C7297.667,3472.667 7298.333,3472.333 7299.000,3472.000 C7371.993,3374.343 7445.007,3276.657 7518.000,3179.000 C7535.998,3179.000 7554.002,3179.000 7572.000,3179.000 C7572.000,3334.984 7572.000,3491.016 7572.000,3647.000 C7541.336,3647.000 7510.664,3647.000 7480.000,3647.000 C7480.000,3549.010 7480.000,3450.990 7480.000,3353.000 C7479.333,3353.333 7478.667,3353.667 7478.000,3354.000 C7405.007,3451.657 7331.993,3549.343 7259.000,3647.000 C7241.002,3647.000 7222.998,3647.000 7205.000,3647.000 C7205.000,3491.016 7205.000,3334.984 7205.000,3179.000 ZM8035.000,3179.000 C8035.000,3334.984 8035.000,3491.016 8035.000,3647.000 C8004.336,3647.000 7973.664,3647.000 7943.000,3647.000 C7943.000,3609.004 7943.000,3570.996 7943.000,3533.000 C7913.940,3532.771 7876.730,3529.279 7855.000,3538.000 C7829.238,3548.340 7779.905,3619.912 7769.000,3647.000 C7734.337,3647.000 7699.663,3647.000 7665.000,3647.000 C7665.333,3646.000 7665.667,3645.000 7666.000,3644.000 C7678.665,3624.335 7691.335,3604.665 7704.000,3585.000 C7723.904,3553.391 7746.512,3527.043 7774.000,3503.000 C7774.000,3502.667 7774.000,3502.333 7774.000,3502.000 C7671.311,3474.081 7645.432,3328.328 7713.000,3243.000 C7773.400,3166.724 7899.372,3178.581 8035.000,3179.000 ZM4785.000,3261.000 C4772.001,3264.000 4758.999,3267.000 4746.000,3270.000 C4704.245,3286.427 4673.427,3320.317 4660.000,3365.000 C4627.722,3472.418 4710.509,3584.105 4821.000,3564.000 C4912.993,3547.261 4978.619,3450.770 4932.000,3344.000 C4909.100,3291.554 4861.774,3260.356 4785.000,3261.000 ZM7943.000,3446.000 C7943.000,3386.006 7943.000,3325.994 7943.000,3266.000 C7846.839,3264.732 7774.976,3263.904 7761.000,3345.000 C7757.731,3363.966 7764.083,3382.403 7769.000,3394.000 C7792.896,3450.366 7862.033,3446.781 7943.000,3446.000 ZM6406.000,3347.000 C6389.335,3389.329 6372.665,3431.671 6356.000,3474.000 C6389.330,3474.000 6422.670,3474.000 6456.000,3474.000 C6456.000,3473.667 6456.000,3473.333 6456.000,3473.000 C6439.335,3431.004 6422.665,3388.996 6406.000,3347.000 ZM2574.000,4361.000 C2575.923,4362.392 2574.599,4361.101 2576.000,4363.000 C2575.333,4362.333 2574.667,4361.667 2574.000,4361.000 Z"/>
</svg>